<?xml version="1.0" standalone="no"?>
<!DOCTYPE svg PUBLIC "-//W3C//DTD SVG 20010904//EN"
 "http://www.w3.org/TR/2001/REC-SVG-20010904/DTD/svg10.dtd">
<svg version="1.0" xmlns="http://www.w3.org/2000/svg"
 width="417.000000pt" height="417.000000pt" viewBox="0 0 417.000000 417.000000"
 preserveAspectRatio="xMidYMid meet">
<metadata>
Created by potrace 1.11, written by Peter Selinger 2001-2013
</metadata>
<g transform="translate(0.000000,417.000000) scale(0.100000,-0.100000)"
fill="#000000" stroke="none">
<path d="M1537 4160 c-77 -24 -135 -95 -197 -237 -48 -112 -63 -142 -150 -308
-66 -126 -96 -182 -165 -305 -24 -41 -51 -91 -62 -110 -51 -90 -200 -332 -241
-390 -26 -36 -106 -143 -179 -238 -232 -302 -340 -474 -415 -659 -61 -149 -94
-482 -68 -673 16 -111 22 -146 31 -185 5 -22 12 -50 15 -63 13 -60 59 -185 99
-267 137 -279 325 -453 612 -565 96 -38 284 -90 373 -104 19 -3 44 -7 55 -10
11 -2 49 -7 85 -11 36 -3 76 -8 90 -10 177 -27 1156 -26 1330 0 14 2 52 6 85
10 207 20 539 114 655 186 8 5 31 17 50 28 261 144 479 478 547 841 23 125 30
215 28 355 -2 148 -16 282 -40 405 -3 14 -7 36 -10 49 -2 13 -16 65 -31 115
-51 177 -141 360 -261 529 -98 138 -328 357 -489 467 -36 24 -188 134 -204
147 -8 6 -87 65 -175 129 -88 64 -252 187 -364 273 -112 86 -217 166 -235 177
-25 18 -148 117 -312 253 -53 43 -188 127 -240 149 -58 24 -174 36 -217 22z
m1646 -2475 c21 -3 52 -12 70 -20 18 -7 35 -13 40 -14 8 -1 25 -14 62 -48 13
-13 29 -23 34 -23 5 0 13 -5 17 -12 5 -7 3 -8 -7 -2 -8 4 1 -9 19 -31 17 -22
32 -45 32 -52 0 -7 5 -13 12 -13 6 0 9 -3 5 -6 -3 -3 1 -25 10 -47 19 -52 18
-159 -1 -214 -8 -23 -12 -44 -9 -47 4 -3 1 -6 -5 -6 -11 0 -28 -38 -24 -53 1
-5 -2 -6 -8 -2 -5 3 -10 0 -10 -7 0 -7 -9 -19 -20 -26 -12 -7 -18 -18 -14 -25
4 -7 4 -9 0 -5 -8 7 -20 0 -62 -39 -13 -12 -24 -20 -24 -18 0 2 -21 -6 -47
-18 -37 -16 -67 -21 -133 -21 -81 0 -95 2 -147 19 -12 4 -26 8 -30 8 -4 0 -17
9 -27 19 -10 9 -24 14 -30 11 -6 -3 -8 -3 -4 2 8 9 -32 42 -45 37 -5 -1 -6 1
-3 6 3 5 -6 20 -19 32 -14 13 -25 29 -25 37 0 7 -4 13 -9 13 -5 0 -11 10 -15
23 -3 12 -5 22 -4 22 1 0 -4 10 -10 21 -46 86 -19 274 49 347 10 11 15 25 12
31 -3 6 -3 8 2 4 4 -4 23 10 42 30 19 20 37 35 39 32 2 -3 12 3 24 12 11 10
20 16 20 13 0 -2 17 3 37 12 21 8 49 17 63 20 13 2 25 5 26 6 4 4 79 -2 117
-8z m-2030 -27 c29 -11 57 -20 64 -21 7 0 10 -4 7 -9 -3 -4 1 -8 9 -8 8 0 22
-9 32 -20 9 -10 22 -18 28 -17 6 1 11 -3 12 -10 0 -6 10 -21 23 -33 12 -11 22
-27 22 -35 0 -8 4 -15 9 -15 5 0 15 -20 22 -45 7 -25 16 -45 19 -45 10 0 13
-124 4 -171 -3 -19 -7 -40 -7 -46 0 -7 -5 -13 -10 -13 -5 0 -7 -6 -4 -14 3 -8
2 -16 -3 -18 -5 -2 -10 -10 -12 -18 -2 -8 -7 -20 -13 -26 -42 -48 -53 -63 -48
-68 4 -3 -1 -6 -10 -6 -9 0 -23 -10 -31 -22 -9 -12 -16 -18 -16 -13 0 6 -4 4
-9 -4 -5 -8 -17 -16 -26 -17 -9 -1 -26 -11 -38 -21 -14 -12 -18 -13 -12 -3 7
12 6 13 -6 3 -27 -22 -118 -31 -189 -19 -25 5 -53 9 -62 9 -10 1 -18 5 -18 9
0 4 -6 8 -14 8 -7 0 -25 9 -40 21 -14 11 -26 18 -26 14 0 -4 -18 11 -39 33
-22 22 -43 37 -46 33 -4 -3 -6 -1 -5 4 5 23 -1 36 -12 29 -7 -4 -10 -4 -6 0 4
5 -2 24 -13 43 -38 67 -51 160 -34 243 10 50 10 51 30 95 10 22 18 44 17 48
-2 5 2 6 7 3 5 -4 12 3 16 14 3 11 11 20 16 20 6 0 7 5 3 12 -4 6 -3 8 3 5 6
-4 17 1 24 10 12 14 12 16 0 8 -10 -5 -12 -4 -7 4 4 6 11 9 16 6 5 -3 13 3 19
12 6 10 11 14 11 9 0 -5 8 -2 18 7 58 52 231 71 325 35z m1022 -820 c10 -3 58
-49 63 -61 1 -4 2 -12 2 -18 0 -5 5 -7 12 -3 6 4 8 3 4 -4 -3 -6 -2 -13 4 -17
6 -4 8 -10 5 -14 -2 -5 -1 -21 4 -38 9 -31 -2 -55 -29 -62 -29 -8 -310 -7
-310 1 0 4 -6 8 -13 8 -10 0 -12 12 -10 43 3 23 5 50 6 60 1 9 6 17 11 17 5 0
7 3 3 6 -6 6 -3 10 43 62 23 26 27 27 110 24 47 -1 90 -3 95 -4z"/>
</g>
</svg>
